<svg width="39" height="38" viewBox="0 0 39 38" fill="none" xmlns="http://www.w3.org/2000/svg">
<path d="M34.6667 0H4.33333C3.18406 0 2.08186 0.44484 1.2692 1.23666C0.456546 2.02848 0 3.10242 0 4.22222V33.7778C0 34.8976 0.456546 35.9715 1.2692 36.7633C2.08186 37.5552 3.18406 38 4.33333 38H34.6667C35.8159 38 36.9181 37.5552 37.7308 36.7633C38.5435 35.9715 39 34.8976 39 33.7778V4.22222C39 3.10242 38.5435 2.02848 37.7308 1.23666C36.9181 0.44484 35.8159 0 34.6667 0ZM34.6667 33.7778H4.33333V4.22222H34.6667V33.7778ZM30.3333 11.4L22.5333 19L30.3333 26.6L27.3 29.5556L19.5 21.9556L11.7 29.5556L8.66667 26.6L16.4667 19L8.66667 11.4L11.7 8.44444L19.5 16.0444L27.3 8.44444L30.3333 11.4Z" fill="black"/>
</svg>
