<svg width="43" height="43" viewBox="0 0 43 43" fill="none" xmlns="http://www.w3.org/2000/svg">
<path d="M23.65 23.65H19.35V10.75H23.65M23.65 32.25H19.35V27.95H23.65M21.5 0C18.6766 0 15.8808 0.556114 13.2723 1.63659C10.6638 2.71707 8.29366 4.30075 6.2972 6.2972C2.26517 10.3292 0 15.7978 0 21.5C0 27.2022 2.26517 32.6708 6.2972 36.7028C8.29366 38.6993 10.6638 40.2829 13.2723 41.3634C15.8808 42.4439 18.6766 43 21.5 43C27.2022 43 32.6708 40.7348 36.7028 36.7028C40.7348 32.6708 43 27.2022 43 21.5C43 18.6766 42.4439 15.8808 41.3634 13.2723C40.2829 10.6638 38.6993 8.29366 36.7028 6.2972C34.7063 4.30075 32.3362 2.71707 29.7277 1.63659C27.1192 0.556114 24.3234 0 21.5 0Z" fill="black"/>
</svg>
