<svg width="50" height="45" viewBox="0 0 50 45" fill="none" xmlns="http://www.w3.org/2000/svg">
<path d="M15 25C10.35 25 6.475 28.2 5.35 32.5H0V37.5H5.35C6.475 41.8 10.35 45 15 45C19.65 45 23.525 41.8 24.65 37.5H50V32.5H24.65C23.525 28.2 19.65 25 15 25ZM15 40C12.25 40 10 37.75 10 35C10 32.25 12.25 30 15 30C17.75 30 20 32.25 20 35C20 37.75 17.75 40 15 40ZM44.65 7.5C43.525 3.2 39.65 0 35 0C30.35 0 26.475 3.2 25.35 7.5H0V12.5H25.35C26.475 16.8 30.35 20 35 20C39.65 20 43.525 16.8 44.65 12.5H50V7.5H44.65ZM35 15C32.25 15 30 12.75 30 10C30 7.25 32.25 5 35 5C37.75 5 40 7.25 40 10C40 12.75 37.75 15 35 15Z" fill="#191919"/>
</svg>
